<mxfile host="app.diagrams.net" modified="2021-09-29T07:32:00.392Z" agent="5.0 (Windows)" etag="Z1zdj5yZFpKFKCpchxRR" version="15.3.7" type="github">
  <diagram id="V_9bh6VrQgzQHTq2N_dR" name="Page-1">
    <mxGraphModel dx="1185" dy="627" grid="1" gridSize="10" guides="1" tooltips="1" connect="1" arrows="1" fold="1" page="1" pageScale="1" pageWidth="827" pageHeight="1169" math="0" shadow="0">
      <root>
        <mxCell id="0" />
        <mxCell id="1" parent="0" />
        <mxCell id="mBQljbQGSH5YuDkTQO93-2" value="" style="shape=curlyBracket;whiteSpace=wrap;html=1;rounded=1;" vertex="1" parent="1">
          <mxGeometry x="110" y="600" width="20" height="360" as="geometry" />
        </mxCell>
        <mxCell id="mBQljbQGSH5YuDkTQO93-5" value="" style="group" vertex="1" connectable="0" parent="1">
          <mxGeometry x="260" y="660" width="250" height="35" as="geometry" />
        </mxCell>
        <mxCell id="mBQljbQGSH5YuDkTQO93-1" value="" style="shape=link;html=1;" edge="1" parent="mBQljbQGSH5YuDkTQO93-5">
          <mxGeometry width="100" relative="1" as="geometry">
            <mxPoint x="38.109756097560975" y="35" as="sourcePoint" />
            <mxPoint x="205.79268292682926" y="35" as="targetPoint" />
          </mxGeometry>
        </mxCell>
        <mxCell id="mBQljbQGSH5YuDkTQO93-3" value="&lt;font face=&quot;Lucida Console&quot;&gt;start_stamp2&lt;/font&gt;" style="text;html=1;align=center;verticalAlign=middle;resizable=0;points=[];autosize=1;strokeColor=none;fillColor=none;" vertex="1" parent="mBQljbQGSH5YuDkTQO93-5">
          <mxGeometry width="100" height="20" as="geometry" />
        </mxCell>
        <mxCell id="mBQljbQGSH5YuDkTQO93-4" value="&lt;font face=&quot;Lucida Console&quot;&gt;end_stamp2&lt;/font&gt;" style="text;html=1;align=center;verticalAlign=middle;resizable=0;points=[];autosize=1;strokeColor=none;fillColor=none;" vertex="1" parent="mBQljbQGSH5YuDkTQO93-5">
          <mxGeometry x="181.40243902439022" width="90" height="20" as="geometry" />
        </mxCell>
        <mxCell id="mBQljbQGSH5YuDkTQO93-6" value="length1" style="group;fontFamily=Lucida Console;" vertex="1" connectable="0" parent="1">
          <mxGeometry x="140" y="860" width="400" height="35" as="geometry" />
        </mxCell>
        <mxCell id="mBQljbQGSH5YuDkTQO93-7" value="" style="shape=link;html=1;" edge="1" parent="mBQljbQGSH5YuDkTQO93-6">
          <mxGeometry width="100" relative="1" as="geometry">
            <mxPoint x="60.97560975609755" y="35" as="sourcePoint" />
            <mxPoint x="329.2682926829267" y="35" as="targetPoint" />
          </mxGeometry>
        </mxCell>
        <mxCell id="mBQljbQGSH5YuDkTQO93-8" value="&lt;font face=&quot;Lucida Console&quot;&gt;start_stamp1&lt;/font&gt;" style="text;html=1;align=center;verticalAlign=middle;resizable=0;points=[];autosize=1;strokeColor=none;fillColor=none;" vertex="1" parent="mBQljbQGSH5YuDkTQO93-6">
          <mxGeometry x="20" width="100" height="20" as="geometry" />
        </mxCell>
        <mxCell id="mBQljbQGSH5YuDkTQO93-10" value="" style="group" vertex="1" connectable="0" parent="1">
          <mxGeometry x="580" y="660" width="249.6341463414634" height="35" as="geometry" />
        </mxCell>
        <mxCell id="mBQljbQGSH5YuDkTQO93-11" value="" style="shape=link;html=1;" edge="1" parent="mBQljbQGSH5YuDkTQO93-10">
          <mxGeometry width="100" relative="1" as="geometry">
            <mxPoint x="33.53658536585366" y="35" as="sourcePoint" />
            <mxPoint x="181.09756097560975" y="35" as="targetPoint" />
          </mxGeometry>
        </mxCell>
        <mxCell id="mBQljbQGSH5YuDkTQO93-12" value="&lt;font face=&quot;Lucida Console&quot;&gt;start_stamp4&lt;/font&gt;" style="text;html=1;align=center;verticalAlign=middle;resizable=0;points=[];autosize=1;strokeColor=none;fillColor=none;" vertex="1" parent="mBQljbQGSH5YuDkTQO93-10">
          <mxGeometry width="100" height="20" as="geometry" />
        </mxCell>
        <mxCell id="mBQljbQGSH5YuDkTQO93-13" value="&lt;font face=&quot;Lucida Console&quot;&gt;end_stamp4&lt;/font&gt;" style="text;html=1;align=center;verticalAlign=middle;resizable=0;points=[];autosize=1;strokeColor=none;fillColor=none;" vertex="1" parent="mBQljbQGSH5YuDkTQO93-10">
          <mxGeometry x="159.6341463414634" width="90" height="20" as="geometry" />
        </mxCell>
        <mxCell id="mBQljbQGSH5YuDkTQO93-14" value="" style="group" vertex="1" connectable="0" parent="1">
          <mxGeometry x="480" y="740" width="249.6341463414634" height="35" as="geometry" />
        </mxCell>
        <mxCell id="mBQljbQGSH5YuDkTQO93-15" value="" style="shape=link;html=1;" edge="1" parent="mBQljbQGSH5YuDkTQO93-14">
          <mxGeometry width="100" relative="1" as="geometry">
            <mxPoint x="33.53658536585366" y="35" as="sourcePoint" />
            <mxPoint x="181.09756097560975" y="35" as="targetPoint" />
          </mxGeometry>
        </mxCell>
        <mxCell id="mBQljbQGSH5YuDkTQO93-16" value="&lt;font face=&quot;Lucida Console&quot;&gt;start_stamp3&lt;/font&gt;" style="text;html=1;align=center;verticalAlign=middle;resizable=0;points=[];autosize=1;strokeColor=none;fillColor=none;" vertex="1" parent="mBQljbQGSH5YuDkTQO93-14">
          <mxGeometry width="100" height="20" as="geometry" />
        </mxCell>
        <mxCell id="mBQljbQGSH5YuDkTQO93-17" value="&lt;font face=&quot;Lucida Console&quot;&gt;end_stamp3&lt;/font&gt;" style="text;html=1;align=center;verticalAlign=middle;resizable=0;points=[];autosize=1;strokeColor=none;fillColor=none;" vertex="1" parent="mBQljbQGSH5YuDkTQO93-14">
          <mxGeometry x="159.6341463414634" width="90" height="20" as="geometry" />
        </mxCell>
        <mxCell id="mBQljbQGSH5YuDkTQO93-18" value="&lt;b&gt;合并&lt;/b&gt;" style="text;html=1;align=center;verticalAlign=middle;resizable=0;points=[];autosize=1;strokeColor=none;fillColor=none;" vertex="1" parent="1">
          <mxGeometry x="160" y="819" width="40" height="20" as="geometry" />
        </mxCell>
        <mxCell id="mBQljbQGSH5YuDkTQO93-19" value="" style="group" vertex="1" connectable="0" parent="1">
          <mxGeometry x="150" y="595" width="280" height="35" as="geometry" />
        </mxCell>
        <mxCell id="mBQljbQGSH5YuDkTQO93-20" value="" style="shape=link;html=1;" edge="1" parent="mBQljbQGSH5YuDkTQO93-19">
          <mxGeometry width="100" relative="1" as="geometry">
            <mxPoint x="42.68292682926829" y="35" as="sourcePoint" />
            <mxPoint x="230.48780487804876" y="35" as="targetPoint" />
          </mxGeometry>
        </mxCell>
        <mxCell id="mBQljbQGSH5YuDkTQO93-21" value="&lt;font face=&quot;Lucida Console&quot;&gt;start_stamp1&lt;/font&gt;" style="text;html=1;align=center;verticalAlign=middle;resizable=0;points=[];autosize=1;strokeColor=none;fillColor=none;" vertex="1" parent="mBQljbQGSH5YuDkTQO93-19">
          <mxGeometry x="10" width="100" height="20" as="geometry" />
        </mxCell>
        <mxCell id="mBQljbQGSH5YuDkTQO93-22" value="&lt;font face=&quot;Lucida Console&quot;&gt;end_stamp1&lt;/font&gt;" style="text;html=1;align=center;verticalAlign=middle;resizable=0;points=[];autosize=1;strokeColor=none;fillColor=none;" vertex="1" parent="mBQljbQGSH5YuDkTQO93-19">
          <mxGeometry x="203.17073170731706" width="90" height="20" as="geometry" />
        </mxCell>
        <mxCell id="mBQljbQGSH5YuDkTQO93-24" value="length3" style="group;fontFamily=Lucida Console;" vertex="1" connectable="0" parent="1">
          <mxGeometry x="452" y="860" width="370" height="35" as="geometry" />
        </mxCell>
        <mxCell id="mBQljbQGSH5YuDkTQO93-25" value="" style="shape=link;html=1;" edge="1" parent="mBQljbQGSH5YuDkTQO93-24">
          <mxGeometry width="100" relative="1" as="geometry">
            <mxPoint x="60.40243902439023" y="35" as="sourcePoint" />
            <mxPoint x="308.5731707317072" y="35" as="targetPoint" />
          </mxGeometry>
        </mxCell>
        <mxCell id="mBQljbQGSH5YuDkTQO93-26" value="&lt;font face=&quot;Lucida Console&quot;&gt;start_stamp3&lt;/font&gt;" style="text;html=1;align=center;verticalAlign=middle;resizable=0;points=[];autosize=1;strokeColor=none;fillColor=none;" vertex="1" parent="mBQljbQGSH5YuDkTQO93-24">
          <mxGeometry x="27.75" width="100" height="20" as="geometry" />
        </mxCell>
        <mxCell id="mBQljbQGSH5YuDkTQO93-27" value="&lt;b&gt;合并后将 &lt;font face=&quot;Lucida Console&quot;&gt;key start_stamp length&lt;/font&gt; 做持久化存入数据库&lt;br&gt;&lt;/b&gt;" style="text;html=1;align=center;verticalAlign=middle;resizable=0;points=[];autosize=1;strokeColor=none;fillColor=none;" vertex="1" parent="1">
          <mxGeometry x="160" y="940" width="340" height="20" as="geometry" />
        </mxCell>
        <mxCell id="mBQljbQGSH5YuDkTQO93-29" value="&lt;b&gt;&lt;font face=&quot;Lucida Console&quot;&gt;key&lt;/font&gt;&lt;/b&gt;" style="text;html=1;align=center;verticalAlign=middle;resizable=0;points=[];autosize=1;strokeColor=none;fillColor=none;fontFamily=Lucida Console;" vertex="1" parent="1">
          <mxGeometry x="50" y="760" width="40" height="20" as="geometry" />
        </mxCell>
      </root>
    </mxGraphModel>
  </diagram>
</mxfile>
